<?xml version="1.0" standalone="no"?>
<!DOCTYPE svg PUBLIC "-//W3C//DTD SVG 20010904//EN"
 "http://www.w3.org/TR/2001/REC-SVG-20010904/DTD/svg10.dtd">
<svg version="1.0" xmlns="http://www.w3.org/2000/svg"
 width="554.000000pt" height="554.000000pt" viewBox="0 0 554.000000 554.000000"
 preserveAspectRatio="xMidYMid meet">

<g transform="translate(0.000000,554.000000) scale(0.100000,-0.100000)"
fill="#000000" stroke="none">
<path d="M2515 5139 c-279 -26 -563 -109 -823 -240 -143 -73 -343 -200 -392
-249 -3 -3 -43 -37 -90 -76 -88 -74 -249 -241 -303 -316 -17 -24 -34 -45 -37
-48 -15 -12 -99 -143 -156 -243 -76 -131 -148 -293 -140 -313 3 -8 2 -13 -3
-10 -13 9 -75 -170 -110 -317 -49 -209 -56 -282 -56 -552 0 -278 8 -357 61
-574 38 -154 56 -204 66 -189 6 9 8 7 4 -7 -9 -33 69 -229 87 -218 5 3 7 1 3
-5 -8 -13 4 -41 73 -167 47 -87 172 -281 190 -295 4 -3 34 -39 68 -80 145
-178 406 -398 598 -505 275 -152 459 -224 730 -283 237 -53 429 -63 710 -37
304 27 520 90 815 236 293 145 511 308 706 526 118 133 195 238 188 257 -4 10
-1 16 9 16 22 0 65 65 141 212 77 148 127 273 171 424 75 255 99 423 97 686
-3 305 -50 566 -148 828 -125 336 -286 587 -548 858 -89 91 -190 175 -200 165
-3 -3 -6 0 -6 8 0 32 -287 214 -467 297 -229 104 -359 143 -678 202 -81 15
-436 21 -560 9z m570 -183 c131 -24 277 -60 385 -96 114 -38 347 -149 448
-213 40 -26 77 -47 82 -47 6 0 10 -4 10 -9 0 -5 24 -25 53 -44 80 -53 253
-212 340 -312 121 -140 283 -386 344 -524 124 -278 183 -513 203 -815 24 -365
-44 -723 -204 -1068 -23 -51 -41 -99 -38 -107 3 -8 0 -11 -6 -7 -6 4 -18 -7
-28 -26 -32 -62 -164 -258 -201 -300 -219 -243 -342 -351 -542 -478 -112 -70
-342 -180 -461 -220 -252 -84 -438 -114 -705 -114 -313 -1 -591 56 -875 179
-197 85 -445 241 -575 362 -97 90 -183 173 -179 173 3 0 -12 18 -32 40 -49 53
-152 188 -170 223 -9 16 -20 25 -26 21 -7 -4 -8 -3 -4 4 3 6 -12 40 -33 76
-62 100 -146 283 -185 399 -88 263 -120 454 -120 722 0 203 11 314 50 490 123
552 455 1034 934 1355 36 24 68 48 72 54 4 6 8 7 8 2 0 -5 6 -4 13 2 31 26
219 115 325 155 102 39 236 81 291 92 53 10 225 37 281 44 106 13 443 5 545
-13z m1716 -3209 c-10 -9 -11 -8 -5 6 3 10 9 15 12 12 3 -3 0 -11 -7 -18z"/>
<path d="M2770 4415 c0 -249 2 -284 15 -279 13 5 15 45 15 269 0 145 -3 270
-6 279 -19 49 -24 -11 -24 -269z"/>
<path d="M2530 4664 c0 -11 20 -92 44 -179 24 -88 56 -206 71 -263 18 -67 31
-100 37 -94 10 10 3 42 -85 370 -41 152 -67 216 -67 166z"/>
<path d="M3037 4608 c-91 -255 -164 -477 -160 -482 15 -15 24 1 55 97 18 56
33 107 34 112 0 6 8 26 17 46 23 53 87 240 87 256 0 28 -19 11 -33 -29z"/>
<path d="M2336 4521 c26 -50 50 -91 53 -91 4 0 7 -8 8 -17 1 -10 16 -44 35
-75 18 -31 57 -102 87 -158 29 -55 58 -100 63 -100 19 0 3 34 -207 430 -31 60
-57 96 -68 98 -16 3 -10 -12 29 -87z"/>
<path d="M3158 4372 c-70 -119 -139 -236 -153 -259 -21 -34 -23 -43 -11 -43 9
0 22 14 31 30 9 17 13 30 10 30 -3 0 3 8 13 18 9 9 50 73 90 142 41 69 95 161
122 205 53 86 56 95 38 95 -7 -1 -70 -99 -140 -218z"/>
<path d="M3400 4337 c-48 -46 -105 -97 -303 -275 -34 -31 -43 -44 -32 -48 14
-6 80 42 121 88 11 13 38 38 60 57 88 78 149 136 146 144 -1 4 2 6 6 5 12 -4
72 55 72 69 0 22 -13 14 -70 -40z"/>
<path d="M2140 4360 c0 -8 56 -77 80 -100 3 -3 57 -61 120 -130 63 -69 127
-138 142 -155 16 -16 28 -24 28 -17 0 7 -57 77 -127 155 -71 79 -150 169 -178
200 -49 56 -65 67 -65 47z"/>
<path d="M3455 4119 c-33 -16 -131 -63 -217 -104 -87 -41 -158 -79 -158 -85 0
-11 11 -13 34 -4 9 3 13 11 9 17 -3 6 -1 7 5 3 12 -7 302 127 313 145 3 6 9
10 13 8 15 -5 76 25 76 38 0 18 -6 16 -75 -18z"/>
<path d="M2081 4081 c26 -16 55 -31 65 -33 10 -2 26 -9 36 -17 16 -14 294
-161 304 -161 2 0 4 4 4 9 0 10 -423 231 -442 231 -7 0 8 -13 33 -29z"/>
<path d="M2774 3956 c-23 -55 -54 -130 -70 -166 -33 -79 -35 -143 -5 -197 12
-21 30 -57 41 -80 20 -41 21 -42 40 -25 11 9 20 22 20 28 0 7 11 26 25 42 61
73 71 166 30 289 -14 42 -29 106 -33 143 l-7 68 -41 -102z m13 -96 c-1 -31 -6
-51 -14 -54 -8 -3 -13 -21 -13 -44 0 -22 -3 -74 -7 -116 l-6 -77 -23 28 c-46
56 -41 113 19 243 18 38 35 70 38 70 3 0 6 -22 6 -50z m42 -84 c1 -44 -12 -22
-15 26 -3 32 -1 38 6 23 5 -11 9 -33 9 -49z m6 -83 c-8 -51 -42 -140 -50 -131
-3 3 3 29 15 57 11 29 21 67 23 86 1 19 6 35 10 35 5 0 5 -21 2 -47z m-45 -40
c0 -10 -5 -25 -10 -33 -7 -11 -10 -7 -10 18 0 17 5 32 10 32 6 0 10 -8 10 -17z"/>
<path d="M1970 3908 c0 -8 41 -22 108 -36 59 -13 115 -28 124 -33 15 -7 248
-69 262 -69 3 0 6 4 6 10 0 5 -19 14 -42 20 -52 12 -140 37 -309 84 -141 40
-149 41 -149 24z"/>
<path d="M3286 3839 c-104 -26 -191 -51 -194 -54 -19 -19 31 -11 214 35 241
61 267 69 209 68 -22 0 -125 -22 -229 -49z"/>
<path d="M1063 3559 c-9 -11 -13 -195 -18 -684 -3 -369 -8 -705 -10 -747 -3
-42 -1 -79 3 -81 4 -3 100 -8 215 -12 l207 -7 1 184 c1 101 4 228 8 283 l6
100 90 -175 c50 -96 101 -199 115 -230 14 -30 38 -78 52 -106 l27 -51 62 -7
c111 -11 279 -7 279 7 0 7 -24 31 -53 54 -183 147 -297 349 -297 530 0 139 44
237 149 336 60 55 105 131 241 407 21 41 51 98 68 126 l30 51 -151 6 c-82 4
-181 7 -218 7 -79 0 -60 23 -202 -240 -51 -96 -114 -210 -138 -252 l-44 -78
-3 290 -2 290 -108 0 c-59 0 -150 3 -202 6 -76 5 -98 4 -107 -7z m346 -400
c-3 -211 -1 -329 6 -329 5 0 30 14 55 31 39 27 58 54 134 193 49 88 107 192
128 230 21 38 36 76 34 83 -3 8 -2 11 3 8 6 -3 22 17 38 45 l28 50 120 0 c66
0 126 -4 134 -9 11 -7 3 -29 -38 -110 -28 -56 -49 -107 -45 -114 4 -7 3 -9 -1
-5 -7 7 -115 -173 -115 -191 0 -3 -21 -24 -46 -45 -26 -23 -43 -45 -40 -53 3
-8 2 -12 -3 -8 -15 9 -47 -40 -82 -123 -82 -195 -32 -415 142 -622 l71 -85
-63 -3 c-51 -3 -65 0 -73 15 -6 9 -72 138 -147 286 -123 242 -169 319 -188
314 -3 0 -17 5 -29 12 -13 7 -25 11 -27 9 -2 -2 -6 -144 -10 -315 l-8 -313
-145 0 -145 0 7 503 c3 276 9 586 12 690 l7 188 144 -2 145 -1 -3 -329z m181
-119 c0 -5 -4 -10 -10 -10 -5 0 -10 5 -10 10 0 6 5 10 10 10 6 0 10 -4 10 -10z"/>
<path d="M2650 3521 c-75 -40 -74 -37 -77 -289 -2 -195 0 -229 14 -244 13 -15
6 -14 -46 7 -34 13 -96 31 -137 41 -132 29 -350 8 -413 -40 -49 -38 -152 -148
-169 -181 -49 -96 -54 -264 -11 -380 59 -162 225 -339 412 -439 37 -20 97 -52
133 -71 36 -20 88 -51 115 -69 67 -45 191 -167 226 -221 15 -25 33 -45 40 -45
6 0 25 24 41 53 47 83 189 186 382 279 58 27 130 62 160 76 56 27 151 100 205
156 67 71 131 200 166 335 27 106 23 222 -8 293 -46 103 -188 203 -338 239
-80 19 -99 20 -170 10 -75 -10 -181 -42 -236 -71 -50 -26 -147 -103 -160 -126
-7 -13 -15 -24 -19 -24 -3 0 -20 20 -37 43 -17 24 -49 57 -71 73 -23 16 -42
33 -42 37 0 5 4 6 9 3 5 -4 11 0 14 6 3 10 9 9 23 -3 33 -28 83 -50 109 -46
43 5 37 14 -14 21 -27 4 -60 15 -73 26 -23 19 -23 19 22 3 28 -10 56 -14 73
-9 45 11 30 25 -22 21 -38 -3 -55 0 -74 15 -14 11 -30 20 -36 20 -6 0 -11 16
-11 35 0 32 2 35 19 26 10 -6 22 -7 26 -3 5 4 5 1 1 -5 -9 -16 50 -53 86 -53
24 0 25 2 15 25 -7 14 -20 25 -29 25 -9 0 -20 5 -23 11 -4 6 -14 8 -22 5 -8
-3 -11 -2 -8 3 3 5 -5 17 -17 25 -33 23 -44 20 -17 -5 19 -16 20 -19 6 -15
-10 3 -23 6 -28 6 -5 0 -9 16 -9 36 l0 36 28 -24 c16 -13 47 -30 71 -38 37
-12 44 -12 59 3 15 16 15 17 -6 17 -13 0 -40 9 -62 20 -54 28 -63 25 -15 -5
22 -14 36 -25 31 -25 -17 0 -76 42 -71 50 3 5 -5 16 -17 24 -47 33 -10 22 52
-15 66 -40 80 -45 80 -31 0 4 -15 13 -33 20 -18 6 -42 19 -52 27 -18 14 -16
14 19 0 60 -23 66 -17 11 12 -61 31 -57 27 -49 46 7 19 34 11 34 -9 0 -13 37
-34 60 -34 5 0 9 16 8 35 -1 32 -7 39 -57 67 -30 17 -50 33 -44 35 7 3 21 0
32 -6 25 -14 91 -14 91 -1 0 6 -18 10 -41 10 -50 0 -139 37 -139 58 0 13 3 12
19 -2 11 -10 25 -15 32 -10 7 4 10 3 6 -4 -18 -28 135 -25 181 4 l22 14 0
-230 c0 -126 4 -230 8 -230 5 0 17 6 28 14 18 14 19 26 15 243 -2 126 -8 237
-13 248 -14 27 -49 55 -70 55 -25 0 -23 -21 2 -27 32 -8 23 -28 -20 -47 -23
-10 -37 -22 -34 -28 4 -6 2 -8 -4 -4 -6 3 -29 2 -51 -3 -24 -5 -39 -5 -35 0 3
5 -5 9 -18 9 -31 0 -48 18 -48 50 0 29 10 45 28 46 6 1 19 2 27 3 18 1 20 31
3 31 -7 -1 -29 -9 -48 -19z m0 -166 c0 -8 -7 -15 -15 -15 -8 0 -15 7 -15 15 0
8 7 15 15 15 8 0 15 -7 15 -15z m0 -76 c0 -5 -4 -9 -10 -9 -5 0 -10 7 -10 16
0 8 5 12 10 9 6 -3 10 -10 10 -16z m0 -39 c9 -16 8 -18 -5 -14 -8 4 -15 12
-15 20 0 20 7 17 20 -6z m-755 -750 c3 -5 1 -10 -4 -10 -6 0 -11 5 -11 10 0 6
2 10 4 10 3 0 8 -4 11 -10z m1030 -150 c3 -5 1 -10 -4 -10 -6 0 -11 5 -11 10
0 6 2 10 4 10 3 0 8 -4 11 -10z"/>
<path d="M3660 3503 c-18 -4 -175 -466 -166 -488 3 -8 29 -29 58 -48 106 -69
165 -154 175 -251 4 -38 10 -56 19 -56 8 0 14 8 14 19 0 10 6 34 14 52 12 31
12 40 -7 89 -25 65 -146 198 -169 185 -7 -5 -10 -5 -6 0 5 5 -1 14 -11 22 -18
12 -17 20 47 208 l66 195 151 0 c106 0 156 -4 167 -12 14 -11 74 -223 132
-468 14 -55 19 -75 57 -225 11 -44 24 -96 29 -115 4 -19 22 -87 39 -150 62
-228 102 -403 94 -410 -4 -3 -45 -5 -89 -2 l-82 4 -18 71 c-15 57 -24 74 -44
83 -16 8 -112 13 -260 15 l-235 4 -16 -65 c-24 -97 -27 -100 -65 -100 -33 0
-45 12 -24 25 11 7 4 25 -9 25 -10 0 -125 -89 -129 -101 -3 -8 38 -10 220 -13
29 -1 33 2 44 44 27 104 22 100 122 100 49 0 143 -3 209 -6 l120 -7 18 -68 c9
-37 23 -70 31 -73 23 -9 299 -9 297 0 -1 5 -7 32 -14 59 -6 28 -24 100 -40
160 -34 130 -149 590 -157 623 -4 18 -7 21 -14 10 -6 -9 -7 -6 -3 10 4 13 -2
52 -13 90 -12 37 -24 84 -27 105 -4 20 -11 37 -17 37 -5 0 -7 4 -4 9 6 9 -76
345 -94 387 -8 21 -15 22 -196 23 -103 1 -190 3 -193 5 -3 1 -13 1 -21 -1z
m-93 -489 c-3 -3 -12 -4 -19 -1 -8 3 -5 6 6 6 11 1 17 -2 13 -5z"/>
<path d="M2640 3056 c0 -2 19 -18 42 -35 46 -34 78 -43 38 -10 -28 22 -80 52
-80 45z"/>
<path d="M3865 2962 c-28 -93 -68 -221 -119 -382 -54 -171 -57 -183 -44 -192
7 -4 72 -8 143 -9 72 -1 153 -3 181 -5 80 -4 80 -3 38 137 -20 68 -40 138 -44
154 -19 74 -113 381 -119 387 -3 4 -19 -37 -36 -90z m78 -274 c20 -73 43 -158
50 -188 l14 -55 -100 -3 c-55 -1 -104 1 -108 5 -8 8 15 106 61 263 11 41 24
83 26 93 11 36 22 13 57 -115z"/>
<path d="M1616 1707 c-58 -32 -86 -91 -86 -182 0 -89 9 -100 71 -86 45 10 79
1 79 -22 0 -8 4 -6 10 3 7 11 8 5 4 -20 -11 -55 -49 -124 -79 -140 -25 -13
-28 -13 -41 5 -8 10 -14 25 -14 33 0 7 -7 21 -16 29 -22 23 -36 0 -30 -50 9
-76 66 -95 127 -44 29 24 79 127 79 161 0 40 -12 67 -27 62 -8 -3 -12 -2 -9 3
11 17 -38 33 -68 22 -42 -17 -46 -14 -46 32 1 55 21 108 56 151 32 38 42 42
67 24 16 -12 16 -16 -4 -56 -22 -44 -19 -66 6 -41 8 8 21 30 29 51 14 34 14
38 -5 62 -25 31 -50 32 -103 3z"/>
<path d="M3131 1653 c-10 -21 -36 -92 -56 -158 -31 -98 -39 -136 -39 -205 l-1
-85 28 -3 c30 -4 34 8 17 54 -6 15 -8 35 -5 45 7 22 89 69 105 59 7 -4 11 -36
11 -84 0 -80 13 -126 35 -126 9 0 11 24 7 99 -4 71 -2 109 7 132 12 28 12 33
-4 45 -13 9 -21 33 -26 76 -14 111 -33 188 -47 188 -7 0 -21 -17 -32 -37z m37
-97 c7 -35 12 -84 12 -109 0 -44 -2 -46 -46 -71 -26 -14 -48 -26 -50 -26 -12
0 0 67 26 160 17 58 30 106 30 107 0 2 4 3 8 3 5 0 14 -29 20 -64z"/>
<path d="M2108 1644 c-3 -3 -4 -50 -1 -104 5 -77 2 -113 -12 -161 -26 -95 -7
-200 33 -175 4 3 4 35 -2 71 -7 50 -6 79 3 114 33 119 18 295 -21 255z"/>
<path d="M3925 1530 c-14 -15 -15 -23 -6 -34 15 -18 49 -9 56 15 13 40 -20 52
-50 19z"/>
<path d="M1861 1463 c-29 -27 -52 -83 -34 -83 5 0 16 13 26 29 22 37 68 49
102 27 33 -22 32 -44 -2 -52 -16 -3 -55 -16 -88 -28 -48 -17 -64 -29 -79 -58
-19 -33 -19 -37 -3 -61 23 -35 86 -45 138 -21 30 13 42 15 51 6 27 -27 35 -11
42 82 6 73 4 102 -8 130 -25 60 -96 74 -145 29z m105 -150 c-8 -45 -33 -68
-82 -78 -30 -5 -41 -2 -57 14 -19 19 -19 21 -4 45 11 16 33 29 59 36 24 6 48
13 53 15 31 11 37 5 31 -32z"/>
<path d="M2236 1449 c-14 -11 -26 -30 -26 -42 0 -20 1 -19 28 6 48 46 112 31
112 -27 0 -32 0 -32 -47 -32 -55 1 -108 -18 -118 -42 -19 -46 -16 -80 7 -96
29 -21 97 -21 127 0 24 17 31 13 45 -21 2 -6 9 -5 17 3 11 10 11 16 0 34 -10
15 -11 43 -6 110 6 77 5 92 -10 108 -25 28 -94 27 -129 -1z m78 -139 c25 -20
20 -55 -9 -68 -35 -16 -55 -15 -76 4 -19 17 -16 37 8 66 17 19 54 18 77 -2z"/>
<path d="M2455 1459 c-2 -8 -6 -70 -7 -139 -3 -106 -1 -125 12 -125 12 0 17
25 27 118 6 66 14 122 18 125 3 4 13 2 22 -4 13 -8 16 -26 14 -94 -1 -47 -5
-96 -8 -109 -5 -21 8 -40 28 -41 6 0 25 197 22 228 0 7 2 11 5 8 3 -3 11 -1
18 5 27 22 33 -2 27 -115 -4 -82 -2 -115 7 -121 6 -4 13 -5 15 -4 1 2 5 58 8
124 5 111 4 121 -16 137 -24 22 -27 22 -54 3 -18 -13 -25 -13 -49 0 -18 9 -33
11 -44 5 -11 -6 -21 -5 -28 2 -8 8 -13 8 -17 -3z"/>
<path d="M2733 1462 c-6 -4 -14 -58 -18 -128 -6 -106 -5 -122 10 -137 24 -24
58 -21 85 8 21 22 25 39 31 138 4 64 4 116 -1 121 -14 14 -19 -8 -33 -125 -11
-98 -13 -104 -36 -107 l-23 -4 7 115 c6 110 2 134 -22 119z"/>
<path d="M3296 1406 c-12 -88 -11 -209 2 -214 6 -2 12 0 13 5 0 4 2 44 5 89 3
80 16 134 31 134 31 -1 35 -18 28 -124 -6 -92 -5 -106 8 -106 12 0 17 19 22
88 9 99 18 132 39 132 22 0 28 -33 22 -123 -6 -78 3 -121 21 -103 4 4 10 59
12 122 3 103 1 117 -15 129 -16 11 -24 11 -53 -1 -24 -10 -37 -11 -47 -3 -7 6
-28 12 -47 14 -34 3 -35 2 -41 -39z"/>
<path d="M3590 1443 c-33 -6 -47 -19 -53 -48 -5 -32 4 -31 41 0 38 32 66 32
80 0 7 -14 12 -27 12 -29 0 -2 -21 -9 -46 -15 -59 -15 -94 -50 -94 -94 0 -51
28 -71 86 -63 29 4 52 2 60 -5 17 -14 15 -22 21 86 5 118 -1 151 -31 159 -13
3 -30 8 -38 10 -7 2 -24 1 -38 -1z m59 -132 c13 -7 16 -19 13 -45 -4 -32 -8
-37 -44 -46 -68 -19 -87 23 -34 77 23 24 39 28 65 14z"/>
<path d="M3737 1425 c-4 -8 -1 -17 5 -21 7 -5 8 -40 4 -111 -6 -85 -5 -104 6
-101 7 3 18 34 25 74 18 110 27 136 49 144 25 10 27 -8 14 -109 -7 -53 -7 -78
1 -87 21 -25 26 -15 32 64 3 42 8 84 12 93 4 10 -3 27 -18 44 -22 27 -25 27
-62 15 -29 -10 -40 -10 -43 -1 -5 16 -19 14 -25 -4z"/>
<path d="M3933 1429 c-9 -9 -9 -16 -2 -25 7 -8 6 -39 -2 -98 -12 -88 -6 -116
27 -116 20 0 27 19 14 35 -9 10 -11 42 -8 100 6 90 -5 128 -29 104z"/>
<path d="M2890 1325 c0 -12 13 -15 55 -15 30 0 55 4 55 9 0 13 -27 21 -71 21
-28 0 -39 -4 -39 -15z"/>
</g>
</svg>
